<svg xmlns="http://www.w3.org/2000/svg" width="15.513" height="10.346" viewBox="0 0 15.513 10.346">
  <path id="Icon_ionic-ios-arrow-round-forward" data-name="Icon ionic-ios-arrow-round-forward" d="M17.768,11.45a.7.7,0,0,0-.005.991l3.276,3.282H8.57a.7.7,0,0,0,0,1.4H21.034l-3.276,3.282a.709.709,0,0,0,.005.991.7.7,0,0,0,.986-.005l4.44-4.472h0a.787.787,0,0,0,.145-.221.669.669,0,0,0,.054-.269.7.7,0,0,0-.2-.49l-4.44-4.472A.686.686,0,0,0,17.768,11.45Z" transform="translate(-7.875 -11.252)" fill="#d64b41"/>
</svg>
